<svg xmlns="http://www.w3.org/2000/svg" width="230" height="230" viewBox="0 0 230 230"><path d="M64.3 131.9h48.4v19.98H64.3zm48.4-17.1V78.5l-25.9 36.3h25.9zm3.6 17.1h8.1v19.98h-8.1zm0-57.2v40.1H166a53.6 53.6 0 0 0-49.7-40.1zm-5.4.2C87.9 76.3 68.6 93 63 114.8h19.3z"/><path d="M114.5 5.4L19.6 60.2v109.6l94.9 54.8 94.9-54.8V60.2zm77.6 126.5h-23.8v21.8a1.7 1.7 0 0 1-1.8 1.8h-104a1.7 1.7 0 0 1-1.8-1.8v-21.8H36.9a1.8 1.8 0 1 1 0-3.6h13.5v-11.7a1.7 1.7 0 0 1 1.8-1.8h7a57.2 57.2 0 0 1 55.1-43.7c.2-.2.4-.2.7 0a57 57 0 0 1 54.8 43.7h7a1.7 1.7 0 0 1 1.8 1.8v11.7h13.5a1.8 1.8 0 1 1 0 3.6z"/><path d="M128 131.9h36.7v19.98H128zm-74-13.5h121v9.9H54z"/></svg>