<svg xmlns="http://www.w3.org/2000/svg" width="230" height="230" viewBox="0 0 230 230"><path d="M78.9 150.9h24.4l-7.3-9-17.1 9zm9.3-18.2H76.3l-15.8 18.7L63 155l30.4-16-5.2-6.3zm-21.9-12.9h98.5v9.36H66.3zm26.6 12.9l15.1 18.2h13l15.1-18.2H92.9zm59.4-16.5a45.2 45.2 0 0 0 2.2-13.7 39 39 0 0 0-78 0c0 4.7.4 9.5 2.2 13.7z"/><path d="M114.5 4.4L19.6 59.2v109.6l94.9 54.8 94.9-54.8V59.2zm57.6 148.1l-4.1 6a2 2 0 0 1-2.4.5l-8.6-4.5H71.8l-8.6 4.5a1.9 1.9 0 0 1-2.3-.5l-4.2-6a2 2 0 0 1 .2-2.1l14.9-17.7h-7.3a1.7 1.7 0 0 1-1.8-1.8V118a1.7 1.7 0 0 1 1.8-1.8h10.4a49.4 49.4 0 0 1-2-13.7 42.6 42.6 0 0 1 85.2 0 45.9 45.9 0 0 1-2 13.7h10.4a1.7 1.7 0 0 1 1.8 1.8v12.9a1.7 1.7 0 0 1-1.8 1.8h-9.2l14.8 17.7a1.8 1.8 0 0 1 0 2.1z"/><path d="M125.7 150.9h24.4l-17.1-9-7.3 9zm15.1-18.2l-5.4 6.3 30.6 16 2.5-3.4-15.8-18.9h-11.9z"/></svg>